<svg xmlns="http://www.w3.org/2000/svg" viewBox="0 0 256 256">
<defs><linearGradient id="g" x1="0" y1="0" x2="1" y2="1">
<stop offset="0" stop-color="#f0d991"/><stop offset=".52" stop-color="#b9da77"/><stop offset="1" stop-color="#507e62"/>
</linearGradient></defs>
<circle cx="128" cy="128" r="104" fill="none" stroke="url(#g)" stroke-width="7"/>
<path d="M58 169c30-7 50-4 72 1 28 7 52 5 70-1" fill="none" stroke="#d7c488" stroke-width="4" stroke-linecap="round"/>
<g fill="#7ea36e">
<path d="M72 158l18-44 18 44H97l14 24H69l14-24z"/><rect x="88" y="169" width="5" height="18" rx="2"/>
<path d="M117 160l14-35 14 35h-9l11 19h-32l11-19z"/><rect x="129" y="170" width="4" height="16" rx="2"/>
<path d="M151 155l20-48 20 48h-12l15 26h-46l15-26z"/><rect x="169" y="169" width="5" height="18" rx="2"/>
</g></svg>